<svg width="30" height="31" viewBox="0 0 30 31" fill="none" xmlns="http://www.w3.org/2000/svg">
<path d="M30 15.6649C30 7.52085 23.2863 0.922364 15 0.922364C6.71371 0.922364 8.9407e-07 7.52085 8.9407e-07 15.6649C8.9407e-07 23.809 6.71371 30.4075 15 30.4075C23.2863 30.4075 30 23.809 30 15.6649ZM2.90323 15.6649C2.90323 9.09616 8.31653 3.77576 15 3.77576C21.6835 3.77576 27.0968 9.09616 27.0968 15.6649C27.0968 22.2337 21.6835 27.5541 15 27.5541C8.31653 27.5541 2.90323 22.2337 2.90323 15.6649ZM7.25807 16.8538V14.476C7.25807 14.0837 7.58468 13.7627 7.98387 13.7627L15 13.7627V9.77979C15 9.14372 15.7802 8.82865 16.2399 9.2745L22.2278 15.1596C22.5121 15.439 22.5121 15.8908 22.2278 16.1702L16.2399 22.0553C15.7802 22.5071 15 22.1861 15 21.55V17.5672H7.98387C7.58468 17.5672 7.25807 17.2462 7.25807 16.8538Z" fill="black"/>
</svg>
